<svg width="15" height="11" viewBox="0 0 15 11" fill="none" xmlns="http://www.w3.org/2000/svg">
<path d="M3.08203 0.882812V2.94531C3.08203 3.17969 3.07422 3.4043 3.05859 3.61914C3.04297 3.83008 3.02344 4.0293 3 4.2168H3.08203C3.25391 3.94727 3.47852 3.71875 3.75586 3.53125C4.0332 3.33984 4.39648 3.24414 4.8457 3.24414C5.53711 3.24414 6.10156 3.53711 6.53906 4.12305C6.98047 4.70898 7.20117 5.55664 7.20117 6.66602C7.20117 7.41992 7.09961 8.05469 6.89648 8.57031C6.69336 9.08203 6.4082 9.46875 6.04102 9.73047C5.67773 9.98828 5.25586 10.1172 4.77539 10.1172C4.30664 10.1172 3.94922 10.0371 3.70312 9.87695C3.46094 9.71289 3.25391 9.53711 3.08203 9.34961H2.94141L2.57812 10H0.791016V0.882812H3.08203ZM4.00781 5.04297C3.79688 5.04297 3.62305 5.0918 3.48633 5.18945C3.34961 5.28711 3.24805 5.43945 3.18164 5.64648C3.11523 5.84961 3.08203 6.10938 3.08203 6.42578V6.74805C3.08203 7.26367 3.15039 7.64648 3.28711 7.89648C3.42773 8.14648 3.67578 8.27148 4.03125 8.27148C4.30078 8.27148 4.50781 8.13281 4.65234 7.85547C4.79688 7.57812 4.86914 7.17383 4.86914 6.64258C4.86914 6.11133 4.79883 5.71289 4.6582 5.44727C4.51758 5.17773 4.30078 5.04297 4.00781 5.04297Z" fill="#4b5563"/>
<path d="M10.5762 10.1172C9.89258 10.1172 9.33008 9.82617 8.88867 9.24414C8.44727 8.66211 8.22656 7.81055 8.22656 6.68945C8.22656 5.55664 8.45312 4.69922 8.90625 4.11719C9.35938 3.53516 9.94531 3.24414 10.6641 3.24414C10.9609 3.24414 11.2168 3.28711 11.4316 3.37305C11.6465 3.45898 11.832 3.57617 11.9883 3.72461C12.1484 3.86914 12.2871 4.0332 12.4043 4.2168H12.4512C12.4238 4.04883 12.3984 3.81836 12.375 3.52539C12.3516 3.22852 12.3398 2.93945 12.3398 2.6582V0.882812H14.6484V10H12.9199L12.4277 9.16211H12.3398C12.2344 9.33789 12.1016 9.49805 11.9414 9.64258C11.7852 9.78711 11.5938 9.90234 11.3672 9.98828C11.1445 10.0742 10.8809 10.1172 10.5762 10.1172ZM11.5137 8.30664C11.8809 8.30664 12.1387 8.19141 12.2871 7.96094C12.4395 7.72656 12.5215 7.37109 12.5332 6.89453V6.71289C12.5332 6.18945 12.459 5.78906 12.3105 5.51172C12.166 5.23047 11.8926 5.08984 11.4902 5.08984C11.2168 5.08984 10.9902 5.22266 10.8105 5.48828C10.6309 5.75391 10.541 6.16602 10.541 6.72461C10.541 7.27539 10.6309 7.67773 10.8105 7.93164C10.9941 8.18164 11.2285 8.30664 11.5137 8.30664Z" fill="#D8B4FE"/>
</svg>
